<svg preserveAspectRatio="none" width="100%" height="100%" overflow="visible" style="display: block;" viewBox="0 0 14.6667 15.3333" fill="none" xmlns="http://www.w3.org/2000/svg">
<g id="Vector">
<path d="M8 0V1.33333H6.66667V0H8Z" fill="var(--fill-0, #F59E0B)"/>
<path d="M7.33333 2C4.38781 2 2 4.38781 2 7.33333C2 9.05322 2.81483 10.5831 4.07677 11.5573C4.19022 11.6449 4.25779 11.6972 4.30529 11.7374C4.31228 11.7433 4.31808 11.7483 4.32283 11.7525L4.3246 11.757C4.34121 11.7992 4.36113 11.8582 4.39827 11.9697L4.40716 11.9963C4.47207 12.1912 4.53707 12.3863 4.61112 12.5459C4.69567 12.7281 4.81766 12.9238 5.02851 13.0775L5.03997 13.0858C5.25243 13.2372 5.4767 13.291 5.67629 13.3136C5.85109 13.3334 6.05674 13.3334 6.26213 13.3333H8.40454C8.60993 13.3334 8.81558 13.3334 8.99038 13.3136C9.18997 13.291 9.41424 13.2372 9.6267 13.0858L9.63816 13.0775C9.84901 12.9238 9.97099 12.7281 10.0555 12.5459C10.1296 12.3863 10.1946 12.1912 10.2595 11.9964L10.2684 11.9697C10.3055 11.8582 10.3255 11.7992 10.3421 11.757L10.3438 11.7525C10.3486 11.7483 10.3544 11.7433 10.3614 11.7374C10.4089 11.6972 10.4764 11.6449 10.5899 11.5573C11.8518 10.5831 12.6667 9.05322 12.6667 7.33333C12.6667 4.38781 10.2789 2 7.33333 2Z" fill="var(--fill-0, #F59E0B)"/>
<path d="M4.66667 15.3333V14H10V15.3333H4.66667Z" fill="var(--fill-0, #F59E0B)"/>
<path d="M13.3333 8H14.6667V6.66667H13.3333V8Z" fill="var(--fill-0, #F59E0B)"/>
<path d="M3.4714 2.5286L2.4714 1.5286L1.5286 2.4714L2.5286 3.4714L3.4714 2.5286Z" fill="var(--fill-0, #F59E0B)"/>
<path d="M12.1953 1.5286L11.1953 2.5286L12.1381 3.4714L13.1381 2.4714L12.1953 1.5286Z" fill="var(--fill-0, #F59E0B)"/>
<path d="M0 8H1.33333V6.66667H0V8Z" fill="var(--fill-0, #F59E0B)"/>
</g>
</svg>
