<svg preserveAspectRatio="none" width="100%" height="100%" overflow="visible" style="display: block;" viewBox="0 0 106.994 122.571" fill="none" xmlns="http://www.w3.org/2000/svg">
<path id="Polygon" opacity="0.24" d="M81.932 102.009L86.177 96.9152C88.5538 94.063 89.7422 92.637 90.6943 91.052C91.6465 89.467 92.3474 87.7481 93.7492 84.3103L98.8259 71.8602C105.15 56.3505 108.312 48.5956 106.475 41.0488L106.468 41.02C104.622 33.4755 98.242 28.0499 85.4827 17.1986C72.4581 6.12157 65.9458 0.583079 58.0587 0.0431209L58.0286 0.041081C50.1409 -0.48897 42.9403 4.11939 28.5392 13.3361L25.482 15.2927C11.2356 24.4104 4.11244 28.9692 1.27625 36.272C-1.55995 43.5749 0.619138 51.7464 4.9773 68.0895L9.77914 86.0964C11.5159 92.6092 12.3842 95.8656 14.0477 98.6908C14.85 100.053 15.785 101.333 16.839 102.512C19.0245 104.956 21.8625 106.774 27.5386 110.409L27.5386 110.409C39.9113 118.333 46.0977 122.295 52.6068 122.553C55.6982 122.675 58.7842 122.198 61.6947 121.149C67.8229 118.94 72.5259 113.296 81.932 102.009Z" fill="url(#paint0_linear_24338_46056)"/>
<defs>
<linearGradient id="paint0_linear_24338_46056" x1="53.94" y1="130.2" x2="53.94" y2="-5.80041" gradientUnits="userSpaceOnUse">
<stop stop-color="#2563EB"/>
<stop offset="1" stop-color="#2563EB" stop-opacity="0"/>
</linearGradient>
</defs>
</svg>
