<svg preserveAspectRatio="none" width="100%" height="100%" overflow="visible" style="display: block;" viewBox="0 0 287 133.5" fill="none" xmlns="http://www.w3.org/2000/svg">
<g id="Group">
<path id="Vector" opacity="0.48" d="M274.836 54.6297H287V133.5H0V34.0711H16.4018C22.7067 34.0711 25.8592 34.0711 28.0747 35.8954C30.2901 37.7197 30.8949 40.8137 32.1045 47.0015L34.8367 60.9778C35.8506 66.1645 36.3575 68.7579 38.0225 70.466C38.4299 70.884 38.8818 71.2561 39.3702 71.5758C41.366 72.8821 44.0084 72.8821 49.2933 72.8821C54.6223 72.8821 57.2868 72.8821 59.2913 71.5595C59.7816 71.236 60.2348 70.8594 60.6427 70.4367C62.3101 68.7084 62.7982 66.089 63.7744 60.8502L66.772 44.7633C67.8504 38.9761 68.3896 36.0825 70.3512 34.2788C70.5484 34.0975 70.7545 33.9262 70.9689 33.7656C73.1014 32.1676 76.0448 32.1676 81.9316 32.1676C87.4801 32.1676 90.2543 32.1676 92.3278 30.7053C92.5369 30.5579 92.7388 30.4005 92.9328 30.2336C94.8567 28.5794 95.5333 25.889 96.8865 20.5081L98.606 13.6709C99.962 8.27891 100.64 5.58293 102.57 3.92756C102.759 3.76529 102.956 3.61195 103.159 3.46803C105.236 2 108.016 2 113.575 2C119.438 2 122.369 2 124.498 3.58957C124.707 3.74495 124.907 3.91038 125.099 4.08527C127.063 5.8743 127.619 8.75245 128.731 14.5087L131.703 29.8974C132.604 34.567 133.055 36.9019 134.453 38.5187C135.04 39.1975 135.737 39.7728 136.515 40.2204C138.368 41.2864 140.746 41.2864 145.501 41.2864C150.706 41.2864 153.308 41.2864 155.255 42.5035C156.069 43.013 156.785 43.665 157.369 44.4284C158.763 46.2523 159.006 48.8431 159.493 54.0249L164.694 109.356V109.356C165.173 114.447 165.412 116.993 166.764 118.797C167.371 119.607 168.126 120.295 168.99 120.823C170.912 122 173.469 122 178.583 122C183.297 122 185.654 122 187.492 120.956C188.32 120.486 189.057 119.872 189.669 119.142C191.027 117.523 191.453 115.205 192.304 110.568L195.674 92.2046V92.2045C196.545 87.4605 196.98 85.0885 198.391 83.447C198.97 82.7732 199.657 82.2006 200.424 81.7526C202.294 80.6614 204.705 80.6614 209.529 80.6614C214.514 80.6614 217.007 80.6614 218.911 79.515C219.692 79.045 220.387 78.445 220.965 77.741C222.377 76.0241 222.739 73.5577 223.465 68.6249L223.465 68.6248L228.379 35.2047C229.182 29.741 229.584 27.0091 231.26 25.1928C231.67 24.7489 232.128 24.3528 232.627 24.0121C234.668 22.6181 237.429 22.6181 242.952 22.6181C248.041 22.6181 250.585 22.6181 252.541 23.852C253.021 24.1546 253.467 24.5074 253.872 24.9044C255.524 26.523 256.111 28.9989 257.284 33.9508L259.268 42.3196C260.668 48.2268 261.368 51.1804 263.549 52.9051C265.73 54.6297 268.766 54.6297 274.836 54.6297Z" fill="url(#paint0_linear_3303_40977)"/>
<path id="Vector_2" d="M287 54.6297H274.836C268.766 54.6297 265.73 54.6297 263.549 52.9051C261.368 51.1804 260.668 48.2268 259.268 42.3196L257.284 33.9508C256.111 28.999 255.524 26.523 253.872 24.9044C253.467 24.5074 253.021 24.1546 252.541 23.852C250.585 22.6181 248.041 22.6181 242.952 22.6181C237.429 22.6181 234.668 22.6181 232.627 24.0121C232.128 24.3528 231.67 24.7489 231.26 25.1928C229.584 27.0091 229.182 29.741 228.379 35.2047L223.465 68.6248C222.739 73.5576 222.377 76.0241 220.965 77.741C220.387 78.445 219.692 79.045 218.911 79.515C217.007 80.6614 214.514 80.6614 209.529 80.6614C204.705 80.6614 202.294 80.6614 200.424 81.7526C199.657 82.2006 198.97 82.7732 198.391 83.447C196.98 85.0885 196.545 87.4605 195.674 92.2046L192.304 110.568C191.453 115.205 191.027 117.523 189.669 119.142C189.057 119.872 188.32 120.486 187.492 120.956C185.654 122 183.297 122 178.583 122C173.469 122 170.912 122 168.99 120.823C168.126 120.295 167.371 119.607 166.764 118.797C165.412 116.993 165.173 114.447 164.694 109.356L159.493 54.0249C159.006 48.8431 158.763 46.2523 157.369 44.4284C156.785 43.665 156.069 43.013 155.255 42.5035C153.308 41.2864 150.706 41.2864 145.501 41.2864C140.746 41.2864 138.368 41.2864 136.515 40.2204C135.737 39.7728 135.04 39.1975 134.453 38.5187C133.055 36.9019 132.604 34.567 131.703 29.8974L128.731 14.5087C127.619 8.75245 127.063 5.8743 125.099 4.08527C124.907 3.91038 124.707 3.74496 124.498 3.58957C122.369 2 119.438 2 113.575 2C108.016 2 105.236 2 103.159 3.46804C102.956 3.61195 102.759 3.76529 102.57 3.92756C100.64 5.58293 99.962 8.27891 98.606 13.6709L96.8865 20.5081C95.5333 25.889 94.8567 28.5794 92.9328 30.2336C92.7388 30.4005 92.5369 30.5579 92.3278 30.7053C90.2543 32.1676 87.4801 32.1676 81.9316 32.1676C76.0448 32.1676 73.1014 32.1676 70.9689 33.7656C70.7545 33.9262 70.5484 34.0975 70.3512 34.2788C68.3896 36.0825 67.8504 38.9761 66.772 44.7633L63.7744 60.8502C62.7982 66.089 62.3101 68.7084 60.6427 70.4367C60.2348 70.8594 59.7816 71.236 59.2913 71.5595C57.2868 72.8821 54.6223 72.8821 49.2933 72.8821C44.0084 72.8821 41.366 72.8821 39.3702 71.5758C38.8818 71.2561 38.4299 70.884 38.0225 70.466C36.3575 68.7579 35.8506 66.1645 34.8367 60.9778L32.1045 47.0015C30.8949 40.8137 30.2901 37.7197 28.0747 35.8954C25.8592 34.0711 22.7067 34.0711 16.4018 34.0711H-1.29905e-05" stroke="var(--stroke-0, #F97316)" stroke-width="4" stroke-linejoin="round"/>
</g>
<defs>
<linearGradient id="paint0_linear_3303_40977" x1="143.5" y1="2" x2="143.5" y2="133.5" gradientUnits="userSpaceOnUse">
<stop stop-color="#F97316"/>
<stop offset="1" stop-color="#F97316" stop-opacity="0"/>
</linearGradient>
</defs>
</svg>
