<svg preserveAspectRatio="none" width="100%" height="100%" overflow="visible" style="display: block;" viewBox="0 0 22.6024 22.6024" fill="none" xmlns="http://www.w3.org/2000/svg">
<g id="Vector" filter="url(#filter0_d_3303_40908)">
<path d="M4.66292 7.21611C5.06474 6.01066 6.01066 5.06474 7.21611 4.66292C9.8678 3.77903 12.7346 3.77903 15.3863 4.66292C16.5918 5.06474 17.5377 6.01066 17.9395 7.21611C18.8234 9.86779 18.8234 12.7346 17.9395 15.3863C17.5377 16.5918 16.5918 17.5377 15.3863 17.9395C12.7346 18.8234 9.8678 18.8234 7.21611 17.9395C6.01066 17.5377 5.06474 16.5918 4.66292 15.3863C3.77903 12.7346 3.77903 9.86779 4.66292 7.21611Z" fill="var(--fill-0, #F97316)"/>
<path d="M6.58345 2.76509C9.64567 1.74435 12.9568 1.74435 16.019 2.76509C17.8216 3.36598 19.2365 4.78082 19.8374 6.58345C20.8581 9.64566 20.8581 12.9568 19.8374 16.019C19.2365 17.8216 17.8216 19.2365 16.019 19.8374C12.9568 20.8581 9.64566 20.8581 6.58345 19.8374C4.78082 19.2365 3.36598 17.8216 2.76509 16.019C1.74435 12.9568 1.74435 9.64566 2.76509 6.58345C3.36598 4.78082 4.78082 3.36598 6.58345 2.76509Z" stroke="var(--stroke-0, #24262B)" stroke-width="4"/>
</g>
<defs>
<filter id="filter0_d_3303_40908" x="0" y="0" width="22.6024" height="22.6024" filterUnits="userSpaceOnUse" color-interpolation-filters="sRGB">
<feFlood flood-opacity="0" result="BackgroundImageFix"/>
<feColorMatrix in="SourceAlpha" type="matrix" values="0 0 0 0 0 0 0 0 0 0 0 0 0 0 0 0 0 0 127 0" result="hardAlpha"/>
<feOffset/>
<feComposite in2="hardAlpha" operator="out"/>
<feColorMatrix type="matrix" values="0 0 0 0 0.988235 0 0 0 0 0.486275 0 0 0 0 0.223529 0 0 0 0.25 0"/>
<feBlend mode="normal" in2="BackgroundImageFix" result="effect1_dropShadow_3303_40908"/>
<feBlend mode="normal" in="SourceGraphic" in2="effect1_dropShadow_3303_40908" result="shape"/>
</filter>
</defs>
</svg>
