<svg preserveAspectRatio="none" width="100%" height="100%" overflow="visible" style="display: block;" viewBox="0 0 273.664 301.149" fill="none" xmlns="http://www.w3.org/2000/svg">
<path id="Polygon" d="M136.832 1.00016C143.071 1.00016 149.069 2.63545 156.458 5.98258C163.867 9.33878 172.602 14.3814 184.332 21.1535L225.164 44.7277C236.894 51.4998 245.628 56.5442 252.239 61.2824C258.832 66.0077 263.248 70.3843 266.367 75.7873C269.487 81.1902 271.069 87.2023 271.865 95.2746C272.663 103.369 272.664 113.456 272.664 127V174.149C272.664 187.693 272.663 197.78 271.865 205.874C271.069 213.946 269.487 219.959 266.367 225.361C263.248 230.764 258.832 235.141 252.239 239.866C245.628 244.605 236.894 249.649 225.164 256.421L184.332 279.995C172.602 286.767 163.867 291.81 156.458 295.166C149.069 298.513 143.071 300.149 136.832 300.149C130.593 300.149 124.595 298.513 117.206 295.166C109.797 291.81 101.062 286.767 89.332 279.995L48.5 256.421C36.7704 249.649 28.0358 244.605 21.4248 239.866C14.8318 235.141 10.4163 230.764 7.29686 225.361C4.17749 219.959 2.59457 213.946 1.79881 205.874C1.00091 197.78 0.999985 187.693 0.999985 174.149V127C0.999985 113.456 1.00091 103.369 1.79881 95.2746C2.59457 87.2023 4.17749 81.1902 7.29686 75.7873C10.4163 70.3843 14.8318 66.0077 21.4248 61.2824C28.0358 56.5442 36.7704 51.4998 48.5 44.7277L89.332 21.1535C101.062 14.3814 109.797 9.33878 117.206 5.98258C124.595 2.63545 130.593 1.00016 136.832 1.00016Z" stroke="var(--stroke-0, #3F3F46)" stroke-width="2"/>
</svg>
