<svg preserveAspectRatio="none" width="100%" height="100%" overflow="visible" style="display: block;" viewBox="0 0 106.994 122.571" fill="none" xmlns="http://www.w3.org/2000/svg">
<path id="Polygon" d="M46.6031 4.83143C51.0137 2.67919 54.4256 1.80284 57.8931 2.03553V2.0365L57.9224 2.03748V2.03846C61.39 2.27591 64.6519 3.604 68.732 6.3324C72.8555 9.08991 77.639 13.1532 84.1871 18.7221C90.6018 24.1776 95.2825 28.163 98.607 31.7162C101.896 35.231 103.713 38.1768 104.525 41.4935V41.4945L104.532 41.5209V41.5219C105.34 44.8404 105.085 48.2926 103.786 52.9281C102.472 57.6134 100.154 63.3074 96.9742 71.1049L91.897 83.5551C90.4732 87.0467 89.8347 88.5991 88.98 90.0219C88.1253 91.4447 87.0543 92.7381 84.6402 95.6351L80.3951 100.729C75.6679 106.402 72.2097 110.549 69.1744 113.565C66.1627 116.558 63.6971 118.302 61.0162 119.268C58.3483 120.23 55.5197 120.666 52.6861 120.554C49.8385 120.441 46.9621 119.522 43.188 117.578C39.3843 115.617 34.8358 112.707 28.6177 108.725H28.6167L26.5992 107.43C22.2185 104.608 20.0456 103.098 18.3296 101.179C17.3634 100.099 16.5065 98.9252 15.771 97.6762C14.2784 95.141 13.4764 92.1998 11.7115 85.5814L6.90971 67.5746C4.71864 59.3581 3.12217 53.3579 2.40776 48.4994C1.70097 43.6925 1.89325 40.2074 3.14018 36.9965C4.38729 33.7853 6.59769 31.0831 10.3638 28.0131C14.1702 24.9103 19.3977 21.5608 26.5601 16.9769L29.6177 15.0209C36.8574 10.3875 42.1451 7.00683 46.6031 4.83143Z" stroke="var(--stroke-0, #2563EB)" stroke-width="4"/>
</svg>
