<svg preserveAspectRatio="none" width="100%" height="100%" overflow="visible" style="display: block;" viewBox="0 0 176.456 222.586" fill="none" xmlns="http://www.w3.org/2000/svg">
<path id="Polygon" opacity="0.32" d="M163.278 66.7898L133.792 28.2621C120.144 10.4278 113.319 1.51068 103.528 0.167866C93.736 -1.17495 84.763 5.57578 66.8169 19.0772L20.6427 53.8158L20.6426 53.8159C9.53737 62.1708 3.98475 66.3482 1.48029 72.444C-1.02417 78.5399 -0.0121922 85.4144 2.01177 99.1634L9.52498 150.201C10.9243 159.707 11.6239 164.46 13.9956 168.495C16.3673 172.53 20.1794 175.453 27.8034 181.3L27.8036 181.3L56.6081 203.389C74.2018 216.882 82.9986 223.628 92.7132 222.456C102.428 221.283 109.368 212.639 123.248 195.35L146.38 166.536L146.38 166.536C148.616 163.751 149.734 162.359 150.63 160.823C151.527 159.286 152.191 157.629 153.517 154.313L169.727 113.789C174.675 101.418 177.149 95.232 176.287 88.9467C175.424 82.6613 171.376 77.3708 163.278 66.7898Z" fill="url(#paint0_linear_24338_46062)"/>
<defs>
<linearGradient id="paint0_linear_24338_46062" x1="88.8595" y1="-9.54355" x2="88.8595" y2="231.956" gradientUnits="userSpaceOnUse">
<stop stop-color="white"/>
<stop offset="1" stop-color="white" stop-opacity="0"/>
</linearGradient>
</defs>
</svg>
