<svg preserveAspectRatio="none" width="100%" height="100%" overflow="visible" style="display: block;" viewBox="0 0 39.8372 42.2872" fill="none" xmlns="http://www.w3.org/2000/svg">
<path id="Polygon" d="M17.9703 1.17387C19.2588 0.941997 20.5784 0.941997 21.8668 1.17387C23.7151 1.50655 25.4646 2.50064 29.3776 4.7598C33.2907 7.01903 35.0266 8.03736 36.2389 9.47172C37.0839 10.4717 37.7437 11.6149 38.1871 12.8467C38.8231 14.6137 38.8375 16.6255 38.8375 21.1436C38.8375 25.6617 38.8231 27.6735 38.1871 29.4405C37.7437 30.6723 37.0839 31.8155 36.2389 32.8155C35.0266 34.2498 33.2907 35.2682 29.3776 37.5274C25.4646 39.7865 23.7151 40.7806 21.8668 41.1133C20.5784 41.3452 19.2588 41.3452 17.9703 41.1133C16.122 40.7806 14.3726 39.7865 10.4596 37.5274C6.54651 35.2682 4.81055 34.2498 3.59827 32.8155C2.75323 31.8155 2.09343 30.6723 1.65003 29.4405C1.01411 27.6735 0.99964 25.6617 0.99964 21.1436C0.99964 16.6255 1.01411 14.6137 1.65003 12.8467C2.09343 11.6149 2.75323 10.4717 3.59827 9.47172C4.81055 8.03736 6.54651 7.01903 10.4596 4.7598C14.3726 2.50064 16.122 1.50655 17.9703 1.17387Z" stroke="var(--stroke-0, #3F3F46)" stroke-width="2"/>
</svg>
