<svg preserveAspectRatio="none" width="100%" height="100%" overflow="visible" style="display: block;" viewBox="0 0 214.774 230.674" fill="none" xmlns="http://www.w3.org/2000/svg">
<path id="Polygon" d="M105.016 1.05161C106.596 0.983434 108.178 0.983434 109.758 1.05161C116.435 1.33975 122.86 3.24245 130.767 6.90025C138.692 10.5663 148.041 15.963 160.581 23.203C173.12 30.4429 182.468 35.8408 189.606 40.8709C196.727 45.8898 201.587 50.5026 205.175 56.1405C206.024 57.4749 206.816 58.8453 207.547 60.2479C210.636 66.1739 212.2 72.6896 212.986 81.3661C213.773 90.0623 213.774 100.857 213.774 115.337C213.774 129.817 213.773 140.611 212.986 149.307C212.2 157.984 210.636 164.5 207.547 170.426C206.816 171.828 206.024 173.199 205.175 174.533C201.587 180.171 196.727 184.784 189.606 189.803C182.468 194.833 173.12 200.231 160.581 207.471C148.041 214.71 138.692 220.107 130.767 223.773C122.86 227.431 116.435 229.334 109.758 229.622C108.178 229.69 106.596 229.69 105.016 229.622C98.3396 229.334 91.9143 227.431 84.0073 223.773C76.0823 220.107 66.7337 214.71 54.1938 207.471C41.6538 200.231 32.3058 194.833 25.1684 189.803C18.0471 184.784 13.1868 180.171 9.59907 174.533C8.7499 173.199 7.95804 171.828 7.227 170.426C4.1384 164.5 2.5743 157.984 1.78852 149.307C1.00099 140.611 1.00043 129.817 1.00043 115.337C1.00043 100.857 1.00099 90.0623 1.78852 81.3661C2.5743 72.6896 4.1384 66.1739 7.227 60.2479C7.95804 58.8453 8.7499 57.4749 9.59907 56.1405C13.1868 50.5026 18.0471 45.8898 25.1684 40.8709C32.3058 35.8408 41.6538 30.4429 54.1938 23.203C66.7337 15.963 76.0823 10.5663 84.0073 6.90025C91.9143 3.24245 98.3396 1.33975 105.016 1.05161Z" stroke="var(--stroke-0, #3F3F46)" stroke-width="2"/>
</svg>
