<svg preserveAspectRatio="none" width="100%" height="100%" overflow="visible" style="display: block;" viewBox="0 0 9.49322 15.539" fill="none" xmlns="http://www.w3.org/2000/svg">
<g id="Vector">
<path d="M7.26821 0.310423C5.61262 -0.103475 3.8806 -0.103474 2.22501 0.310424C1.28751 0.544799 0.578347 1.31296 0.419479 2.26616L0.261279 3.21537C-0.0870929 5.3056 -0.0870929 7.43907 0.261279 9.5293L0.419479 10.4785C0.578347 11.4317 1.28751 12.1999 2.22501 12.4342C2.7811 12.5733 3.34582 12.6656 3.91337 12.7112V7.20561H5.58004V12.7112C6.14752 12.6656 6.71218 12.5733 7.26821 12.4342C8.20571 12.1999 8.91488 11.4317 9.07374 10.4785L9.23195 9.5293C9.58032 7.43907 9.58032 5.3056 9.23195 3.21537L9.07374 2.26616C8.91488 1.31296 8.20571 0.544799 7.26821 0.310423Z" fill="var(--fill-0, #9EA0A5)"/>
<path d="M7.24661 15.539H2.24661V13.8723H7.24661V15.539Z" fill="var(--fill-0, #9EA0A5)"/>
</g>
</svg>
