<svg preserveAspectRatio="none" width="100%" height="100%" overflow="visible" style="display: block;" viewBox="0 0 18.2108 15.5626" fill="none" xmlns="http://www.w3.org/2000/svg">
<path id="Vector" d="M11.3176 0.513965C11.9025 0.075306 12.6466 -0.0934613 13.3635 0.0499188C15.7555 0.528322 17.6252 2.39808 18.1036 4.79009L18.1582 5.06297C18.2507 5.52524 18.2209 6.00363 18.0718 6.45085L18.0467 6.52627C17.0261 9.58787 14.9708 12.1983 12.2342 13.9087L9.99723 15.3068C9.45158 15.6478 8.75923 15.6478 8.21358 15.3068L5.97664 13.9087C3.89193 12.6058 2.20262 10.7806 1.06492 8.63149L2.40766 8.63149C2.602 8.63153 2.80013 8.63157 2.97174 8.61557C3.16863 8.59721 3.38876 8.55404 3.61254 8.43428C3.83631 8.31452 3.99434 8.1553 4.11883 8.00166C4.22733 7.86775 4.3372 7.70288 4.44497 7.54116L4.99997 6.70865L8.43499 11.0024L9.39013 9.09214C9.50984 8.85271 9.57239 8.72992 9.62517 8.64697L9.62764 8.64311L9.6322 8.64263C9.72998 8.63252 9.86779 8.63149 10.1355 8.63149H11.6054V6.96482L10.1043 6.96482C9.88087 6.96478 9.65488 6.96473 9.46079 6.9848C9.23844 7.00779 8.9895 7.06216 8.74424 7.21374C8.49897 7.36532 8.33902 7.56366 8.21902 7.75225C8.18331 7.80837 8.14804 7.86884 8.1131 7.9321L4.87755 3.88766L3.0735 6.59374C2.94395 6.78807 2.87743 6.88634 2.8239 6.95241L2.82122 6.95569L2.817 6.9561C2.73234 6.96399 2.61367 6.96482 2.38012 6.96482H0.318535C0.264707 6.81972 0.213232 6.67352 0.16415 6.52627L0.139011 6.45085C-0.0100644 6.00363 -0.0398478 5.52524 0.052605 5.06297L0.107181 4.79009C0.585584 2.39808 2.45534 0.528322 4.84735 0.0499189C5.56425 -0.0934612 6.30829 0.0753058 6.89317 0.513964L9.02762 2.11481C9.06706 2.14438 9.08778 2.15988 9.10313 2.17096L9.10541 2.1726L9.10768 2.17096C9.12303 2.15988 9.14375 2.14438 9.18319 2.11481L11.3176 0.513965Z" fill="var(--fill-0, #F43F5E)"/>
</svg>
