<svg preserveAspectRatio="none" width="100%" height="100%" overflow="visible" style="display: block;" viewBox="0 0 16.5962 21.1658" fill="none" xmlns="http://www.w3.org/2000/svg">
<g id="Vector">
<path d="M9.75928 0.162278C9.44452 0.267197 9.19753 0.514187 9.09261 0.828944C8.87624 1.47805 8.87624 2.17983 9.09261 2.82894C9.19753 3.1437 9.44452 3.39069 9.75928 3.49561C10.4084 3.71198 11.1102 3.71198 11.7593 3.49561C12.074 3.39069 12.321 3.1437 12.4259 2.82894C12.6423 2.17983 12.6423 1.47805 12.4259 0.828944C12.321 0.514187 12.074 0.267197 11.7593 0.162278C11.1102 -0.0540925 10.4084 -0.0540926 9.75928 0.162278Z" fill="var(--fill-0, #111214)"/>
<path d="M10.2593 20.4019C10.2593 20.6636 10.4072 20.9029 10.6412 21.0199C11.0303 21.2145 11.4883 21.2145 11.8773 21.0199C12.1114 20.9029 12.2593 20.6636 12.2593 20.4019V15.5432C12.2593 14.6981 12.2593 14.2756 12.0976 13.8982C11.9359 13.5209 11.6299 13.2295 11.0179 12.6467L10.1593 11.8289L10.7593 8.82894C11.4093 9.57894 12.2134 10.1831 13.1718 10.6414C14.0051 11.04 14.892 11.2653 15.8324 11.3172C16.0937 11.3317 16.3332 11.1811 16.4503 10.947C16.6448 10.5579 16.6448 10.1 16.4503 9.71091C16.3332 9.47682 16.0936 9.33277 15.8326 9.3133C15.0541 9.25521 14.3505 9.03543 13.7218 8.65394C12.9801 8.20394 12.3926 7.62894 11.9593 6.92894L10.9593 5.32894C10.7759 5.02894 10.5343 4.78728 10.2343 4.60394C9.93428 4.42061 9.60928 4.32894 9.25928 4.32894C9.02595 4.32894 8.77178 4.36644 8.49678 4.44144C8.22178 4.51644 7.79261 4.67894 7.20928 4.92894L5.48596 5.67063C4.5017 6.09423 4.00958 6.30603 3.69741 6.69632C3.62037 6.79265 3.5524 6.8959 3.49437 7.00475C3.25928 7.44578 3.25928 7.98155 3.25928 9.05309V10.9019C3.25928 11.1636 3.40715 11.4029 3.64125 11.5199C4.03031 11.7145 4.48825 11.7145 4.87731 11.5199C5.11141 11.4029 5.25928 11.1636 5.25928 10.9019V9.14023C5.25928 8.63181 5.25928 8.37761 5.36429 8.16692C5.40527 8.08472 5.45737 8.00854 5.51914 7.94056C5.67744 7.76633 5.91436 7.67419 6.3882 7.48992L7.05928 7.22894L5.8509 13.3464C5.66645 14.2801 5.57423 14.747 5.2264 14.9775C4.87858 15.208 4.41268 15.1109 3.4809 14.9168L1.04995 14.4103C0.808059 14.3599 0.557617 14.4419 0.392328 14.6256L0.310222 14.7168C-0.0221459 15.0861 -0.0945996 15.6212 0.127594 16.0656C0.210712 16.2318 0.365714 16.3505 0.547861 16.3875L3.32943 16.9519C5.13841 17.3189 6.0429 17.5024 6.72732 17.0603C7.41174 16.6181 7.61627 15.7182 8.02535 13.9182L8.15928 13.3289L9.63859 14.7378C9.94457 15.0292 10.0976 15.1749 10.1784 15.3636C10.2593 15.5523 10.2593 15.7635 10.2593 16.1861V20.4019Z" fill="var(--fill-0, #111214)"/>
</g>
</svg>
