<svg preserveAspectRatio="none" width="100%" height="100%" overflow="visible" style="display: block;" viewBox="0 0 16.6667 16.6667" fill="none" xmlns="http://www.w3.org/2000/svg">
<path id="Vector" fill-rule="evenodd" clip-rule="evenodd" d="M8.33333 16.6667C3.73096 16.6667 0 12.9357 0 8.33333C0 3.73096 3.73096 0 8.33333 0C12.9357 0 16.6667 3.73096 16.6667 8.33333C16.6667 12.9357 12.9357 16.6667 8.33333 16.6667ZM7.14632 5.67829C7.15879 5.70948 7.16503 5.72508 7.17161 5.73984C7.25535 5.92772 7.40562 6.07798 7.59349 6.16172C7.60825 6.1683 7.62384 6.17454 7.65502 6.18701C7.71333 6.21033 7.74257 6.22203 7.77117 6.23227C8.13463 6.3625 8.53204 6.3625 8.8955 6.23227C8.9241 6.22203 8.95326 6.21036 9.01158 6.18703C9.04276 6.17456 9.05841 6.1683 9.07318 6.16172C9.26105 6.07798 9.41131 5.92772 9.49505 5.73984C9.50164 5.72508 9.50787 5.70948 9.52035 5.67829C9.54369 5.61995 9.55536 5.59077 9.56561 5.56217C9.69583 5.1987 9.69583 4.8013 9.56561 4.43783C9.55536 4.40923 9.54369 4.38005 9.52035 4.32171C9.50787 4.29052 9.50164 4.27492 9.49505 4.26015C9.41131 4.07228 9.26105 3.92202 9.07318 3.83828C9.05841 3.8317 9.04282 3.82546 9.01165 3.81299C8.95333 3.78967 8.9241 3.77797 8.8955 3.76773C8.53204 3.6375 8.13463 3.6375 7.77117 3.76773C7.74257 3.77797 7.7134 3.78964 7.65509 3.81297C7.62391 3.82544 7.60825 3.8317 7.59349 3.83828C7.40562 3.92202 7.25535 4.07228 7.17161 4.26015C7.16503 4.27492 7.15879 4.29052 7.14632 4.32171C7.12298 4.38005 7.11131 4.40923 7.10106 4.43783C6.97083 4.8013 6.97083 5.1987 7.10106 5.56217C7.11131 5.59077 7.12298 5.61995 7.14632 5.67829ZM7.5 12.9167V7.5H9.16667V12.9167H7.5Z" fill="var(--fill-0, #3F3F46)"/>
</svg>
