<svg preserveAspectRatio="none" width="100%" height="100%" overflow="visible" style="display: block;" viewBox="0 0 14.3183 14.3183" fill="none" xmlns="http://www.w3.org/2000/svg">
<g id="Vector">
<path d="M5.51598 0.31645C5.23492 0.428876 5.01221 0.651582 4.89978 0.932647C4.47785 1.98748 4.47785 3.1642 4.89978 4.21903C5.01221 4.5001 5.23492 4.7228 5.51598 4.83523C6.57081 5.25716 7.74753 5.25716 8.80237 4.83523C9.08343 4.7228 9.30614 4.5001 9.41856 4.21903C9.8405 3.1642 9.8405 1.98748 9.41856 0.932647C9.30614 0.651582 9.08343 0.428876 8.80237 0.31645C7.74753 -0.105483 6.57081 -0.105483 5.51598 0.31645Z" fill="var(--fill-0, #9EA0A5)"/>
<path d="M5.51598 9.48312C5.23492 9.59554 5.01221 9.81825 4.89978 10.0993C4.47785 11.1541 4.47785 12.3309 4.89978 13.3857C5.01221 13.6668 5.23492 13.8895 5.51598 14.0019C6.57081 14.4238 7.74753 14.4238 8.80237 14.0019C9.08343 13.8895 9.30614 13.6668 9.41856 13.3857C9.8405 12.3309 9.8405 11.1541 9.41856 10.0993C9.30614 9.81825 9.08343 9.59554 8.80237 9.48312C7.74753 9.06118 6.57081 9.06118 5.51598 9.48312Z" fill="var(--fill-0, #9EA0A5)"/>
<path d="M13.3857 4.89978C13.6668 5.01221 13.8895 5.23492 14.0019 5.51598C14.4238 6.57081 14.4238 7.74753 14.0019 8.80237C13.8895 9.08343 13.6668 9.30614 13.3857 9.41856C12.3309 9.8405 11.1541 9.8405 10.0993 9.41856C9.81825 9.30614 9.59554 9.08343 9.48312 8.80237C9.06118 7.74753 9.06118 6.57081 9.48312 5.51598C9.59554 5.23492 9.81825 5.01221 10.0993 4.89978C11.1541 4.47785 12.3309 4.47785 13.3857 4.89978Z" fill="var(--fill-0, #9EA0A5)"/>
<path d="M4.83523 5.51598C4.7228 5.23492 4.5001 5.01221 4.21903 4.89978C3.1642 4.47785 1.98748 4.47785 0.932647 4.89978C0.651582 5.01221 0.428876 5.23492 0.31645 5.51598C-0.105483 6.57081 -0.105483 7.74753 0.31645 8.80237C0.428876 9.08343 0.651582 9.30614 0.932647 9.41856C1.98748 9.8405 3.1642 9.8405 4.21903 9.41856C4.5001 9.30614 4.7228 9.08343 4.83523 8.80237C5.25716 7.74753 5.25716 6.57081 4.83523 5.51598Z" fill="var(--fill-0, #9EA0A5)"/>
</g>
</svg>
