<svg preserveAspectRatio="none" width="100%" height="100%" overflow="visible" style="display: block;" viewBox="0 0 17.5373 16.1917" fill="none" xmlns="http://www.w3.org/2000/svg">
<g id="Vector">
<path d="M4.87795 4.8332L4.88602 4.832C5.08926 4.8026 5.38586 4.80053 5.90343 4.80053H11.6342C12.1517 4.80053 12.4483 4.8026 12.6516 4.832L12.6596 4.8332L12.6588 4.84131C12.6381 5.04561 12.5682 5.33386 12.4426 5.83597C12.3619 6.15881 12.3179 6.32922 12.2736 6.44556L12.2717 6.4504L12.2666 6.45103C12.1429 6.46581 11.9669 6.4672 11.6342 6.4672H9.60213V5.63386H7.93547V6.4672H5.90343C5.57066 6.4672 5.39465 6.46581 5.27104 6.45103L5.26589 6.4504L5.26404 6.44556C5.21972 6.32922 5.17568 6.15881 5.09498 5.83597C4.96945 5.33386 4.89952 5.04561 4.87875 4.84131L4.87795 4.8332Z" fill="var(--fill-0, #F97316)"/>
<path fill-rule="evenodd" clip-rule="evenodd" d="M12.3082 0.153697C9.95293 -0.0512323 7.58434 -0.0512323 5.2291 0.153697C4.96717 0.176488 4.70541 0.202664 4.19834 0.253371L4.14048 0.259152C3.78255 0.294898 3.53902 0.319219 3.32771 0.362656C1.35772 0.767611 -0.0418505 2.52194 0.00095565 4.53267C0.00554719 4.74835 0.0359348 4.99119 0.0805982 5.34812L0.990517 12.6274C1.20517 14.3447 2.55779 15.6973 4.27503 15.9119C7.25915 16.285 10.2781 16.285 13.2622 15.9119C14.9795 15.6973 16.3321 14.3447 16.5468 12.6274L17.4567 5.34814C17.5013 4.99132 17.5317 4.74831 17.5363 4.53267C17.5791 2.52194 16.1795 0.767611 14.2096 0.362656C13.9982 0.319219 13.7547 0.294898 13.3968 0.259152L13.3389 0.253373C12.8319 0.202666 12.5701 0.176488 12.3082 0.153697ZM4.6474 3.18251C4.98473 3.13371 5.40513 3.13378 5.85066 3.13386H11.6869C12.1325 3.13378 12.5529 3.13371 12.8902 3.18251C13.2625 3.23636 13.6994 3.37043 14.0152 3.77484C14.3309 4.17926 14.355 4.63568 14.317 5.00988C14.2825 5.34897 14.1805 5.75679 14.0723 6.18899L14.0503 6.27694C13.9826 6.54813 13.9152 6.81795 13.831 7.03891C13.7351 7.29079 13.5877 7.56446 13.3105 7.78087C13.0333 7.99728 12.7321 8.0739 12.4645 8.1059C12.2297 8.13398 11.9515 8.13392 11.672 8.13387H5.8656C5.58606 8.13392 5.30794 8.13398 5.07315 8.1059C4.80551 8.0739 4.50426 7.99728 4.22709 7.78087C3.94992 7.56446 3.80253 7.29079 3.70657 7.03891C3.62238 6.81794 3.55498 6.5481 3.48724 6.2769L3.46527 6.18901C3.35714 5.75681 3.25511 5.34897 3.22063 5.00988C3.18259 4.63568 3.20668 4.17926 3.52244 3.77484C3.8382 3.37043 4.27515 3.23636 4.6474 3.18251Z" fill="var(--fill-0, #F97316)"/>
</g>
</svg>
