<svg preserveAspectRatio="none" width="100%" height="100%" overflow="visible" style="display: block;" viewBox="0 0 409.382 315" fill="none" xmlns="http://www.w3.org/2000/svg">
<g id="Group">
<path id="Polygon" d="M241 294.215L305.602 256.917C321.692 247.628 329.736 242.983 329.717 236.033C329.698 229.083 321.628 224.483 305.488 215.282L240.885 178.456C224.924 169.357 216.943 164.808 210.971 168.277C205 171.747 205 180.934 205 199.307V273.431C205 291.906 205 301.144 211 304.608C217 308.072 225 303.453 241 294.215Z" stroke="var(--stroke-0, #18181B)" stroke-width="2"/>
<path id="Polygon_2" d="M241 20.7846L305.602 58.0828C321.692 67.3719 329.736 72.0165 329.717 78.9667C329.698 85.9169 321.628 90.5171 305.488 99.7177L240.885 136.544C224.924 145.643 216.943 150.192 210.971 146.723C205 143.253 205 134.066 205 115.693V41.5692C205 23.094 205 13.8564 211 10.3923C217 6.92821 225 11.547 241 20.7846Z" stroke="var(--stroke-0, #18181B)" stroke-width="2"/>
<path id="Polygon_3" d="M340.966 120.569L340.966 195.166C340.966 213.744 340.966 223.033 334.937 226.492C328.909 229.95 320.89 225.261 304.852 215.884L240.658 178.35C224.798 169.076 216.867 164.439 216.886 157.533C216.905 150.626 224.861 146.033 240.772 136.847L304.966 99.7846C320.966 90.547 328.966 85.9282 334.966 89.3923C340.966 92.8564 340.966 102.094 340.966 120.569Z" stroke="var(--stroke-0, #18181B)" stroke-width="2"/>
<path id="Polygon_4" d="M68.416 120.569L68.416 195.166C68.416 213.744 68.416 223.033 74.4446 226.492C80.4732 229.95 88.4922 225.261 104.53 215.884L168.724 178.35C184.584 169.076 192.515 164.439 192.496 157.533C192.477 150.626 184.521 146.033 168.609 136.847L104.416 99.7846C88.416 90.547 80.416 85.9282 74.416 89.3923C68.416 92.8564 68.416 102.094 68.416 120.569Z" stroke="var(--stroke-0, #18181B)" stroke-width="2"/>
<path id="Polygon_5" d="M168.832 294.215L104.23 256.917C88.1403 247.628 80.0957 242.983 80.1148 236.033C80.1339 229.083 88.204 224.483 104.344 215.282L168.946 178.456C184.908 169.357 192.889 164.808 198.861 168.277C204.832 171.747 204.832 180.934 204.832 199.307V273.431C204.832 291.906 204.832 301.144 198.832 304.608C192.832 308.072 184.832 303.453 168.832 294.215Z" stroke="var(--stroke-0, #18181B)" stroke-width="2"/>
<path id="Polygon_6" d="M168.832 20.7846L104.23 58.0828C88.1403 67.3719 80.0957 72.0165 80.1148 78.9667C80.1339 85.9169 88.204 90.5171 104.344 99.7177L168.946 136.544C184.908 145.643 192.889 150.192 198.861 146.723C204.832 143.253 204.832 134.066 204.832 115.693V41.5692C204.832 23.094 204.832 13.8564 198.832 10.3923C192.832 6.92821 184.832 11.547 168.832 20.7846Z" stroke="var(--stroke-0, #18181B)" stroke-width="2"/>
</g>
</svg>
