<svg preserveAspectRatio="none" width="100%" height="100%" overflow="visible" style="display: block;" viewBox="0 0 17.1516 18.1068" fill="none" xmlns="http://www.w3.org/2000/svg">
<g id="Vector">
<path d="M11.1188 0.797774L10.7977 1.33286C10.6911 1.5106 10.6377 1.59947 10.5652 1.67201C10.4927 1.74455 10.4038 1.79787 10.226 1.90452L9.69096 2.22557C9.15911 2.54468 8.89319 2.70423 8.89319 2.94015C8.89319 3.17606 9.15911 3.33561 9.69096 3.65472L10.226 3.97577C10.4038 4.08242 10.4927 4.13574 10.5652 4.20828C10.6377 4.28081 10.691 4.36967 10.7977 4.54738L11.1188 5.08252C11.4379 5.61437 11.5974 5.88029 11.8333 5.88029C12.0692 5.88029 12.2288 5.61437 12.5479 5.08252L12.869 4.54743C12.9756 4.3697 13.0289 4.28082 13.1015 4.20828C13.174 4.13574 13.2629 4.08242 13.4406 3.97577L13.9757 3.65472C14.5076 3.33561 14.7735 3.17606 14.7735 2.94015C14.7735 2.70423 14.5076 2.54468 13.9757 2.22557L13.4406 1.90452C13.2629 1.79788 13.174 1.74455 13.1015 1.67201C13.0289 1.59947 12.9756 1.5106 12.869 1.33286L12.5479 0.797775C12.2288 0.265925 12.0692 0 11.8333 0C11.5974 0 11.4379 0.265925 11.1188 0.797774Z" fill="var(--fill-0, white)" fill-opacity="0.64"/>
<path d="M16.4167 6.48181C16.2502 6.39857 16.1669 6.35695 16.0962 6.29954C16.0513 6.26315 16.0103 6.22218 15.9739 6.17731C15.9165 6.10653 15.8749 6.02329 15.7917 5.85681C15.5746 5.42264 15.466 5.20556 15.3125 5.14819C15.2184 5.11306 15.1149 5.11306 15.0208 5.14819C14.8673 5.20556 14.7588 5.42264 14.5417 5.85681C14.4585 6.02324 14.4168 6.10655 14.3594 6.17731C14.323 6.22218 14.282 6.26315 14.2372 6.29954C14.1664 6.35695 14.0831 6.39857 13.9167 6.48181C13.4825 6.6989 13.2654 6.80744 13.208 6.96099C13.1729 7.05503 13.1729 7.1586 13.208 7.25264C13.2654 7.40619 13.4825 7.51473 13.9167 7.73181C14.0831 7.81505 14.1664 7.85667 14.2372 7.91408C14.282 7.95048 14.323 7.99144 14.3594 8.03632C14.4168 8.10709 14.4584 8.19032 14.5417 8.35679C14.7587 8.79096 14.8673 9.00807 15.0208 9.06543C15.1149 9.10057 15.2184 9.10057 15.3125 9.06543C15.466 9.00807 15.5746 8.79098 15.7917 8.35681C15.8749 8.19033 15.9165 8.10709 15.9739 8.03632C16.0103 7.99144 16.0513 7.95048 16.0962 7.91408C16.1669 7.85667 16.2502 7.81505 16.4167 7.73181C16.8508 7.51473 17.0679 7.40619 17.1253 7.25264C17.1604 7.1586 17.1604 7.05503 17.1253 6.96099C17.0679 6.80744 16.8508 6.6989 16.4167 6.48181Z" fill="var(--fill-0, white)" fill-opacity="0.64"/>
<path d="M6.16739 4.30981C6.30524 4.07747 6.63087 3.60681 7.25 3.60681C7.86913 3.60681 8.19476 4.07747 8.33261 4.30981C8.47985 4.55799 8.62219 4.89982 8.76811 5.25024L9.57466 7.186C9.86115 7.87358 9.92912 7.99875 10.0186 8.08822C10.1081 8.1777 10.2332 8.24566 10.9208 8.53215L12.8566 9.3387C13.207 9.48461 13.5488 9.62696 13.797 9.77421C14.0293 9.91205 14.5 10.2377 14.5 10.8568C14.5 11.4759 14.0293 11.8016 13.797 11.9394C13.5488 12.0867 13.207 12.229 12.8566 12.3749L10.9208 13.1815C10.2332 13.468 10.1081 13.5359 10.0186 13.6254C9.92912 13.7149 9.86115 13.84 9.57466 14.5276L8.76811 16.4634C8.6222 16.8138 8.47985 17.1556 8.33261 17.4038C8.19476 17.6361 7.86913 18.1068 7.25 18.1068C6.63087 18.1068 6.30524 17.6361 6.16739 17.4038C6.02015 17.1556 5.87782 16.8138 5.73191 16.4634L4.92534 14.5276C4.63885 13.84 4.57088 13.7149 4.48141 13.6254C4.39194 13.5359 4.26677 13.468 3.57918 13.1815L1.64343 12.3749C1.29301 12.229 0.951182 12.0867 0.702996 11.9394C0.470662 11.8016 0 11.4759 0 10.8568C0 10.2377 0.470662 9.91205 0.702996 9.77421C0.951183 9.62696 1.29301 9.48462 1.64344 9.3387L3.57919 8.53215C4.26677 8.24566 4.39194 8.1777 4.48141 8.08822C4.57088 7.99875 4.63885 7.87358 4.92534 7.186L5.73189 5.25025C5.87781 4.89983 6.02014 4.558 6.16739 4.30981Z" fill="var(--fill-0, white)" fill-opacity="0.64"/>
</g>
</svg>
