<svg preserveAspectRatio="none" width="100%" height="100%" overflow="visible" style="display: block;" viewBox="0 0 304 140" fill="none" xmlns="http://www.w3.org/2000/svg">
<g id="Vector" opacity="0.48" filter="url(#filter0_d_3303_40902)">
<path d="M50.8384 41.5094H8V128H296V4H293.62C280.609 4 274.103 4 268.247 6.41255C262.391 8.82511 257.773 13.4077 248.538 22.5729L201.325 69.4271C192.09 78.5923 187.472 83.1749 181.616 85.5874C175.76 88 169.254 88 156.243 88H150.419C137.407 88 130.902 88 125.046 85.5874C119.19 83.1749 114.572 78.5923 105.337 69.4271L95.9203 60.0823C86.6849 50.9171 82.0672 46.3345 76.2113 43.922C70.3553 41.5094 63.8496 41.5094 50.8384 41.5094Z" fill="url(#paint0_linear_3303_40902)" shape-rendering="crispEdges"/>
</g>
<defs>
<filter id="filter0_d_3303_40902" x="0" y="0" width="304" height="140" filterUnits="userSpaceOnUse" color-interpolation-filters="sRGB">
<feFlood flood-opacity="0" result="BackgroundImageFix"/>
<feColorMatrix in="SourceAlpha" type="matrix" values="0 0 0 0 0 0 0 0 0 0 0 0 0 0 0 0 0 0 127 0" result="hardAlpha"/>
<feOffset dy="4"/>
<feGaussianBlur stdDeviation="4"/>
<feComposite in2="hardAlpha" operator="out"/>
<feColorMatrix type="matrix" values="0 0 0 0 0.988235 0 0 0 0 0.486275 0 0 0 0 0.223529 0 0 0 0.1 0"/>
<feBlend mode="normal" in2="BackgroundImageFix" result="effect1_dropShadow_3303_40902"/>
<feBlend mode="normal" in="SourceGraphic" in2="effect1_dropShadow_3303_40902" result="shape"/>
</filter>
<linearGradient id="paint0_linear_3303_40902" x1="152" y1="4" x2="152" y2="128" gradientUnits="userSpaceOnUse">
<stop stop-color="#2563EB"/>
<stop offset="1" stop-color="#2563EB" stop-opacity="0"/>
</linearGradient>
</defs>
</svg>
