<svg preserveAspectRatio="none" width="100%" height="100%" overflow="visible" style="display: block;" viewBox="0 0 155.885 165.149" fill="none" xmlns="http://www.w3.org/2000/svg">
<path id="Polygon" d="M68.744 1.90934C74.8163 0.697504 81.0682 0.697504 87.1405 1.90934C94.6969 3.41735 101.805 7.50673 116.413 15.9406C131.021 24.3744 138.117 28.4857 143.201 34.2755C147.287 38.9283 150.413 44.3427 152.399 50.2072C154.872 57.5052 154.885 65.7064 154.885 82.5744C154.885 99.4423 154.872 107.644 152.399 114.942C150.413 120.806 147.287 126.22 143.201 130.873C138.117 136.663 131.021 140.774 116.413 149.208C101.805 157.642 94.6969 161.731 87.1405 163.239C81.0682 164.451 74.8163 164.451 68.744 163.239C61.1877 161.731 54.0794 157.642 39.4716 149.208C24.8638 140.774 17.7677 136.663 12.6835 130.873C8.59798 126.22 5.47194 120.806 3.48525 114.942C1.01302 107.644 0.999901 99.4423 0.999901 82.5744C0.999901 65.7064 1.01302 57.5052 3.48525 50.2072C5.47194 44.3427 8.59798 38.9283 12.6835 34.2755C17.7677 28.4857 24.8638 24.3744 39.4716 15.9406C54.0794 7.50673 61.1877 3.41735 68.744 1.90934Z" stroke="var(--stroke-0, #3F3F46)" stroke-width="2"/>
</svg>
