<svg preserveAspectRatio="none" width="100%" height="100%" overflow="visible" style="display: block;" viewBox="0 0 14.8145 16.2265" fill="none" xmlns="http://www.w3.org/2000/svg">
<path id="Vector" d="M8.54227 0.470132C7.91543 -0.156709 6.89912 -0.156712 6.27228 0.470131L2.7941 3.94831C1.49793 5.24447 0.61444 6.8953 0.25495 8.69275L0.107108 9.43196C-0.0357028 10.146 -0.0357027 10.8813 0.107108 11.5953C0.565725 13.8884 2.42054 15.643 4.73553 15.9738L5.61139 16.0989C6.8026 16.2691 8.01194 16.2691 9.20315 16.0989L10.079 15.9738C12.394 15.643 14.2488 13.8884 14.7074 11.5953C14.8503 10.8813 14.8503 10.146 14.7074 9.43196L14.5596 8.69275C14.2001 6.8953 13.3166 5.24447 12.0205 3.94831L8.54227 0.470132Z" fill="var(--fill-0, #A855F7)"/>
</svg>
