<svg preserveAspectRatio="none" width="100%" height="100%" overflow="visible" style="display: block;" viewBox="0 0 18.2108 15.5626" fill="none" xmlns="http://www.w3.org/2000/svg">
<path id="Vector" d="M13.3635 0.0499188C12.6466 -0.0934613 11.9025 0.075306 11.3176 0.513965L9.18319 2.11481C9.14375 2.14438 9.12303 2.15988 9.10768 2.17096L9.10541 2.1726L9.10313 2.17096C9.08778 2.15988 9.06706 2.14438 9.02762 2.11481L6.89317 0.513964C6.30829 0.0753058 5.56425 -0.0934612 4.84735 0.0499189C2.45534 0.528322 0.585584 2.39808 0.107181 4.79009L0.052605 5.06297C-0.0398478 5.52524 -0.0100644 6.00363 0.139011 6.45085L0.16415 6.52627C1.18468 9.58787 3.23997 12.1983 5.97664 13.9087L8.21358 15.3068C8.75923 15.6478 9.45158 15.6478 9.99723 15.3068L12.2342 13.9087C14.9708 12.1983 17.0261 9.58787 18.0467 6.52627L18.0718 6.45085C18.2209 6.00363 18.2507 5.52524 18.1582 5.06297L18.1036 4.79009C17.6252 2.39808 15.7555 0.528322 13.3635 0.0499188Z" fill="var(--fill-0, white)" fill-opacity="0.64"/>
</svg>
