<svg preserveAspectRatio="none" width="100%" height="100%" overflow="visible" style="display: block;" viewBox="0 0 98.7269 104.099" fill="none" xmlns="http://www.w3.org/2000/svg">
<path id="Polygon" d="M42.0099 1.88454C46.8412 0.704852 51.8857 0.704852 56.717 1.88454C60.991 2.92816 65.0624 5.26834 73.5451 10.1658C82.0277 15.0633 86.0902 17.4198 89.131 20.5994C92.5681 24.1935 95.0906 28.562 96.4845 33.3357C97.7177 37.5588 97.7267 42.2549 97.7267 52.0496C97.7267 61.8442 97.7177 66.5403 96.4845 70.7635C95.0906 75.5372 92.5681 79.9057 89.131 83.4998C86.0902 86.6794 82.0277 89.0359 73.5451 93.9334C65.0624 98.8308 60.991 101.171 56.717 102.215C51.8857 103.394 46.8412 103.394 42.0099 102.215C37.7359 101.171 33.6645 98.8308 25.1818 93.9334C16.6992 89.0359 12.6367 86.6794 9.59587 83.4998C6.15876 79.9057 3.63632 75.5372 2.24236 70.7635C1.00925 66.5403 1.00017 61.8442 1.00017 52.0496C1.00017 42.2549 1.00925 37.5588 2.24236 33.3357C3.63632 28.562 6.15876 24.1935 9.59587 20.5994C12.6367 17.4198 16.6992 15.0633 25.1818 10.1658C33.6645 5.26834 37.7359 2.92816 42.0099 1.88454Z" stroke="var(--stroke-0, #3F3F46)" stroke-width="2"/>
</svg>
