<svg preserveAspectRatio="none" width="100%" height="100%" overflow="visible" style="display: block;" viewBox="0 0 217.138 210.204" fill="none" xmlns="http://www.w3.org/2000/svg">
<path id="Polygon" opacity="0.32" d="M30.9046 177.404L103.673 205.139C112.718 208.587 117.241 210.311 121.954 210.199C126.667 210.087 131.103 208.15 139.975 204.277L177.534 187.877C201.237 177.528 213.088 172.354 216.339 161.858C219.591 151.361 212.74 140.394 199.038 118.458L141.774 26.7813C132.275 11.5739 127.525 3.97021 119.796 1.13529C112.066 -1.69964 103.526 1.03019 86.4475 6.48985L33.3844 23.4527C17.2844 28.5994 9.23435 31.1727 4.61718 37.4961C0 43.8194 0 52.2707 0 69.1734V132.551C0 148.554 0 156.556 4.23709 162.705C8.47418 168.855 15.951 171.704 30.9046 177.404Z" fill="url(#paint0_linear_24338_46054)"/>
<defs>
<linearGradient id="paint0_linear_24338_46054" x1="114.25" y1="-4.87529" x2="114.25" y2="212.125" gradientUnits="userSpaceOnUse">
<stop stop-color="#F97316"/>
<stop offset="1" stop-color="#F97316" stop-opacity="0"/>
</linearGradient>
</defs>
</svg>
